<mxfile host="65bd71144e">
    <diagram id="LU3jiyeO5NQYm-dhqzi3" name="Page-1">
        <mxGraphModel dx="2051" dy="693" grid="1" gridSize="10" guides="1" tooltips="1" connect="1" arrows="1" fold="1" page="1" pageScale="1" pageWidth="1100" pageHeight="850" math="0" shadow="0">
            <root>
                <mxCell id="0"/>
                <mxCell id="1" parent="0"/>
                <mxCell id="10" value="&lt;b style=&quot;font-size: 14px;&quot;&gt;GEP&lt;/b&gt;" style="rounded=1;whiteSpace=wrap;html=1;fillColor=none;dashed=1;labelPosition=center;verticalLabelPosition=top;align=center;verticalAlign=bottom;fontSize=14;" parent="1" vertex="1">
                    <mxGeometry x="530" y="185" width="260" height="480" as="geometry"/>
                </mxCell>
                <mxCell id="2" value="UI(Online IDE)" style="rounded=0;whiteSpace=wrap;html=1;align=center;labelPosition=center;verticalLabelPosition=top;verticalAlign=bottom;fillColor=#dae8fc;strokeColor=#6c8ebf;fontStyle=1" parent="1" vertex="1">
                    <mxGeometry x="560" y="512" width="200" height="120" as="geometry"/>
                </mxCell>
                <mxCell id="3" value="Github Auth Service" style="rounded=1;whiteSpace=wrap;html=1;" parent="1" vertex="1">
                    <mxGeometry x="580" y="527" width="160" height="40" as="geometry"/>
                </mxCell>
                <mxCell id="12" value="&lt;b style=&quot;font-size: 14px;&quot;&gt;Github&lt;/b&gt;" style="rounded=1;whiteSpace=wrap;html=1;fillColor=#e1d5e7;dashed=1;labelPosition=center;verticalLabelPosition=top;align=center;verticalAlign=bottom;strokeColor=#9673a6;fontSize=14;" parent="1" vertex="1">
                    <mxGeometry x="170" y="185" width="220" height="170" as="geometry"/>
                </mxCell>
                <mxCell id="19" value="" style="edgeStyle=none;html=1;startArrow=classic;startFill=1;entryX=0.5;entryY=1;entryDx=0;entryDy=0;" parent="1" source="4" target="14" edge="1">
                    <mxGeometry relative="1" as="geometry">
                        <mxPoint x="200" y="457" as="targetPoint"/>
                        <Array as="points">
                            <mxPoint x="280" y="597"/>
                        </Array>
                    </mxGeometry>
                </mxCell>
                <mxCell id="4" value="Github Service" style="rounded=1;whiteSpace=wrap;html=1;" parent="1" vertex="1">
                    <mxGeometry x="580" y="577" width="160" height="40" as="geometry"/>
                </mxCell>
                <mxCell id="17" value="" style="edgeStyle=none;html=1;entryX=1;entryY=0.5;entryDx=0;entryDy=0;startArrow=classic;startFill=1;" parent="1" source="5" target="3" edge="1">
                    <mxGeometry relative="1" as="geometry">
                        <mxPoint x="880" y="597" as="targetPoint"/>
                        <Array as="points">
                            <mxPoint x="840" y="317"/>
                            <mxPoint x="840" y="547"/>
                        </Array>
                    </mxGeometry>
                </mxCell>
                <mxCell id="22" value="Authorization" style="edgeLabel;html=1;align=center;verticalAlign=middle;resizable=0;points=[];" parent="17" vertex="1" connectable="0">
                    <mxGeometry x="-0.1187" y="1" relative="1" as="geometry">
                        <mxPoint as="offset"/>
                    </mxGeometry>
                </mxCell>
                <mxCell id="5" value="Microservice" style="rounded=0;whiteSpace=wrap;html=1;align=center;labelPosition=center;verticalLabelPosition=top;verticalAlign=bottom;fillColor=#f5f5f5;fontColor=#333333;strokeColor=#666666;fontStyle=1" parent="1" vertex="1">
                    <mxGeometry x="560" y="227" width="200" height="180" as="geometry"/>
                </mxCell>
                <mxCell id="7" value="Get Acess Token" style="rounded=1;whiteSpace=wrap;html=1;" parent="1" vertex="1">
                    <mxGeometry x="580" y="247" width="160" height="40" as="geometry"/>
                </mxCell>
                <mxCell id="21" value="" style="edgeStyle=none;html=1;startArrow=classic;startFill=1;entryX=1;entryY=0.5;entryDx=0;entryDy=0;exitX=0;exitY=0.5;exitDx=0;exitDy=0;" parent="1" source="5" target="13" edge="1">
                    <mxGeometry relative="1" as="geometry">
                        <mxPoint x="460" y="317" as="targetPoint"/>
                        <Array as="points">
                            <mxPoint x="470" y="317"/>
                            <mxPoint x="470" y="242"/>
                        </Array>
                    </mxGeometry>
                </mxCell>
                <mxCell id="23" value="Authorization" style="edgeLabel;html=1;align=center;verticalAlign=middle;resizable=0;points=[];" parent="21" vertex="1" connectable="0">
                    <mxGeometry x="0.0099" y="1" relative="1" as="geometry">
                        <mxPoint as="offset"/>
                    </mxGeometry>
                </mxCell>
                <mxCell id="8" value="Refresh Acess Token" style="rounded=1;whiteSpace=wrap;html=1;" parent="1" vertex="1">
                    <mxGeometry x="580" y="297" width="160" height="40" as="geometry"/>
                </mxCell>
                <mxCell id="9" value="Logout" style="rounded=1;whiteSpace=wrap;html=1;" parent="1" vertex="1">
                    <mxGeometry x="580" y="347" width="160" height="40" as="geometry"/>
                </mxCell>
                <mxCell id="13" value="OAuth API" style="rounded=1;whiteSpace=wrap;html=1;" parent="1" vertex="1">
                    <mxGeometry x="200" y="222" width="160" height="40" as="geometry"/>
                </mxCell>
                <mxCell id="14" value="Github REST API" style="rounded=1;whiteSpace=wrap;html=1;" parent="1" vertex="1">
                    <mxGeometry x="200" y="282" width="160" height="40" as="geometry"/>
                </mxCell>
                <mxCell id="25" value="&lt;ul style=&quot;font-size: 10px;&quot;&gt;&lt;li style=&quot;font-size: 10px;&quot;&gt;List all repositories&lt;/li&gt;&lt;li style=&quot;font-size: 10px;&quot;&gt;Load a repository&lt;/li&gt;&lt;li style=&quot;font-size: 10px;&quot;&gt;Load all branches&lt;/li&gt;&lt;li style=&quot;font-size: 10px;&quot;&gt;List files&lt;/li&gt;&lt;li style=&quot;font-size: 10px;&quot;&gt;Load resource&lt;/li&gt;&lt;li style=&quot;font-size: 10px;&quot;&gt;Commit a change&lt;/li&gt;&lt;li style=&quot;font-size: 10px;&quot;&gt;Create pull request&lt;/li&gt;&lt;li style=&quot;font-size: 10px;&quot;&gt;List pull requests&lt;/li&gt;&lt;li style=&quot;font-size: 10px;&quot;&gt;Approve pull request&lt;/li&gt;&lt;li style=&quot;font-size: 10px;&quot;&gt;Cancel pull request&lt;/li&gt;&lt;li style=&quot;font-size: 10px;&quot;&gt;...&lt;/li&gt;&lt;/ul&gt;" style="text;html=1;align=left;verticalAlign=middle;resizable=0;points=[];autosize=1;strokeColor=none;fillColor=none;fontSize=10;fontColor=#3399FF;" parent="1" vertex="1">
                    <mxGeometry x="260" y="377" width="160" height="230" as="geometry"/>
                </mxCell>
            </root>
        </mxGraphModel>
    </diagram>
</mxfile>